<svg width="35" height="28" viewBox="0 0 35 28" fill="none" xmlns="http://www.w3.org/2000/svg">
<path id="Vector" d="M3.42011 27.2697C2.47958 27.2697 1.67443 26.9433 1.00466 26.2905C0.334886 25.6377 0 24.853 0 23.9364V3.93636C0 3.01969 0.334886 2.23497 1.00466 1.58219C1.67443 0.929416 2.47958 0.603027 3.42011 0.603027H30.781C31.7215 0.603027 32.5266 0.929416 33.1964 1.58219C33.8662 2.23497 34.2011 3.01969 34.2011 3.93636V23.9364C34.2011 24.853 33.8662 25.6377 33.1964 26.2905C32.5266 26.9433 31.7215 27.2697 30.781 27.2697H3.42011ZM17.1005 15.603L3.42011 7.26969V23.9364H30.781V7.26969L17.1005 15.603ZM17.1005 12.2697L30.781 3.93636H3.42011L17.1005 12.2697ZM3.42011 7.26969V3.93636V23.9364V7.26969Z" fill="white"/>
</svg>
