<svg width="27" height="35" viewBox="0 0 27 35" fill="none" xmlns="http://www.w3.org/2000/svg">
<path id="Vector" d="M13.3333 17.5199C14.25 17.5199 15.0347 17.1853 15.6875 16.5162C16.3403 15.8471 16.6667 15.0428 16.6667 14.1032C16.6667 13.1636 16.3403 12.3593 15.6875 11.6902C15.0347 11.0211 14.25 10.6865 13.3333 10.6865C12.4167 10.6865 11.6319 11.0211 10.9792 11.6902C10.3264 12.3593 10 13.1636 10 14.1032C10 15.0428 10.3264 15.8471 10.9792 16.5162C11.6319 17.1853 12.4167 17.5199 13.3333 17.5199ZM13.3333 30.0761C16.7222 26.8872 19.2361 23.9902 20.875 21.385C22.5139 18.7798 23.3333 16.4664 23.3333 14.4449C23.3333 11.3414 22.3681 8.80024 20.4375 6.82142C18.5069 4.8426 16.1389 3.85319 13.3333 3.85319C10.5278 3.85319 8.15972 4.8426 6.22917 6.82142C4.29861 8.80024 3.33333 11.3414 3.33333 14.4449C3.33333 16.4664 4.15278 18.7798 5.79167 21.385C7.43056 23.9902 9.94444 26.8872 13.3333 30.0761ZM13.3333 34.6032C8.86111 30.7025 5.52083 27.0794 3.3125 23.7339C1.10417 20.3884 0 17.2921 0 14.4449C0 10.174 1.34028 6.77159 4.02083 4.23757C6.70139 1.70354 9.80556 0.436523 13.3333 0.436523C16.8611 0.436523 19.9653 1.70354 22.6458 4.23757C25.3264 6.77159 26.6667 10.174 26.6667 14.4449C26.6667 17.2921 25.5625 20.3884 23.3542 23.7339C21.1458 27.0794 17.8056 30.7025 13.3333 34.6032Z" fill="white"/>
</svg>
