<svg width="1821" height="1300" viewBox="0 0 1821 1300" fill="none" xmlns="http://www.w3.org/2000/svg">
<path d="M515.92 340.295H186.76V235.359H515.92V340.295ZM562.371 104.789H145.114V575H41.0004V53.1222C41.0004 45.9129 42.3352 39.104 45.0047 32.6957C47.6743 26.2874 51.2783 20.6801 55.8166 15.8739C60.6218 11.0676 66.228 7.32943 72.635 4.6593C79.042 1.98916 85.9829 0.654095 93.4578 0.654095H562.371V104.789Z" fill="#2B2A2A" fill-opacity="0.1"/>
<path d="M1102.56 522.532C1102.56 530.008 1101.23 536.951 1098.56 543.359C1095.89 549.767 1092.15 555.375 1087.35 560.181C1082.81 564.72 1077.33 568.325 1070.93 570.995C1064.79 573.665 1058.11 575 1050.91 575H815.448C802.634 575 788.885 573.531 774.203 570.594C759.787 567.657 745.505 562.984 731.356 556.576C717.207 549.901 703.459 541.623 690.111 531.744C677.03 521.597 665.55 509.448 655.673 495.297C645.795 480.878 637.787 464.323 631.647 445.632C625.773 426.941 622.837 405.847 622.837 382.35V142.038H726.951V382.35C726.951 395.967 729.22 408.25 733.758 419.198C738.564 429.878 744.971 439.09 752.979 446.834C760.988 454.577 770.332 460.585 781.01 464.857C791.955 468.862 803.702 470.865 816.249 470.865H998.448V142.038H1102.56V522.532Z" fill="#2B2A2A" fill-opacity="0.1"/>
<path d="M1618.73 428.81C1618.73 446.7 1616.46 462.854 1611.92 477.273C1607.38 491.425 1601.37 503.974 1593.9 514.922C1586.42 525.603 1577.75 534.814 1567.87 542.558C1557.99 550.034 1547.58 556.176 1536.64 560.982C1525.96 565.788 1515.01 569.393 1503.8 571.796C1492.86 573.932 1482.44 575 1472.57 575H1190.66V470.865H1471.77C1485.91 470.865 1496.59 467.26 1503.8 460.051C1511.01 452.841 1514.61 442.428 1514.61 428.81C1513.28 401.041 1499.26 387.156 1472.57 387.156H1311.19C1288.23 387.156 1268.74 383.151 1252.73 375.14C1236.71 367.13 1223.63 357.117 1213.48 345.101C1203.61 333.086 1196.4 320.136 1191.86 306.251C1187.59 292.366 1185.45 279.416 1185.45 267.401C1185.45 244.17 1189.59 224.678 1197.87 208.925C1206.14 192.904 1216.55 179.954 1229.1 170.074C1241.65 160.195 1255.26 153.119 1269.95 148.847C1284.63 144.307 1298.38 142.038 1311.19 142.038H1567.07V246.173H1311.99C1306.65 246.173 1302.38 246.841 1299.18 248.176C1296.24 249.244 1293.97 250.846 1292.37 252.982C1291.03 254.851 1290.23 256.987 1289.97 259.39C1289.7 261.526 1289.57 263.662 1289.57 265.798C1289.83 270.071 1290.63 273.408 1291.97 275.811C1293.3 278.215 1294.91 279.95 1296.77 281.018C1298.91 282.086 1301.18 282.754 1303.58 283.021C1306.25 283.021 1308.79 283.021 1311.19 283.021H1472.57C1499.26 283.021 1521.95 287.827 1540.64 297.44C1559.33 307.052 1574.41 319.201 1585.89 333.887C1597.37 348.306 1605.65 364.059 1610.72 381.148C1616.06 398.237 1618.73 414.124 1618.73 428.81Z" fill="#2B2A2A" fill-opacity="0.1"/>
<path d="M479.725 1300H375.611V1012.83C375.611 999.209 372.141 988.929 365.2 981.987C358.259 974.778 347.847 971.173 333.965 971.173H146.16V867.038H333.965C343.843 867.038 354.254 868.239 365.2 870.642C376.145 872.779 386.957 876.25 397.635 881.056C408.581 885.862 418.992 892.137 428.869 899.88C438.747 907.357 447.423 916.569 454.898 927.516C462.373 938.197 468.379 950.613 472.917 964.765C477.456 978.916 479.725 994.937 479.725 1012.83V1300ZM104.114 1300H0V684H104.114V1300Z" fill="#2B2A2A" fill-opacity="0.1"/>
<path d="M680.745 778.122H576.631V684H680.745V778.122ZM680.745 1300H576.631V867.038H680.745V1300Z" fill="#2B2A2A" fill-opacity="0.1"/>
<path d="M1251.77 1153.81C1251.77 1171.7 1249.5 1187.85 1244.96 1202.27C1240.42 1216.42 1234.42 1228.97 1226.94 1239.92C1219.47 1250.6 1210.79 1259.81 1200.91 1267.56C1191.04 1275.03 1180.62 1281.18 1169.68 1285.98C1159 1290.79 1148.06 1294.39 1136.84 1296.8C1125.9 1298.93 1115.49 1300 1105.61 1300H917.804C903.388 1300 887.638 1297.46 870.552 1292.39C853.467 1287.32 837.583 1279.04 822.9 1267.56C808.485 1255.81 796.338 1240.72 786.46 1222.3C776.85 1203.61 772.045 1180.78 772.045 1153.81V1012.83C772.045 986.126 776.85 963.563 786.46 945.139C796.338 926.448 808.485 911.362 822.9 899.88C837.583 888.132 853.467 879.721 870.552 874.648C887.638 869.574 903.388 867.038 917.804 867.038H1105.61C1132.31 867.038 1155 871.844 1173.68 881.456C1192.37 891.069 1207.45 903.218 1218.93 917.904C1230.41 932.322 1238.69 948.076 1243.76 965.165C1249.1 982.254 1251.77 998.141 1251.77 1012.83V1153.81ZM1147.66 1013.63C1147.66 999.209 1144.05 988.529 1136.84 981.586C1129.64 974.644 1119.22 971.173 1105.61 971.173H918.605C904.723 971.173 894.179 974.778 886.971 981.987C879.763 988.929 876.158 999.209 876.158 1012.83V1153.81C876.158 1167.43 879.763 1177.84 886.971 1185.05C894.179 1192.26 904.723 1195.86 918.605 1195.86H1105.61C1119.76 1195.86 1130.3 1192.26 1137.24 1185.05C1144.19 1177.84 1147.66 1167.43 1147.66 1153.81V1013.63Z" fill="#2B2A2A" fill-opacity="0.1"/>
<path d="M1820.39 1300H1716.28V1059.69C1716.28 1046.07 1713.88 1033.92 1709.07 1023.24C1704.53 1012.29 1698.26 1002.95 1690.25 995.204C1682.24 987.461 1672.76 981.586 1661.82 977.581C1651.14 973.309 1639.53 971.173 1626.98 971.173H1444.78V1300H1340.67V918.705C1340.67 911.495 1342 904.82 1344.67 898.679C1347.34 892.271 1351.08 886.797 1355.88 882.257C1360.69 877.451 1366.3 873.713 1372.7 871.043C1379.11 868.373 1385.92 867.038 1393.12 867.038H1627.78C1640.86 867.038 1654.61 868.506 1669.03 871.443C1683.71 874.381 1698.12 879.187 1712.27 885.862C1726.69 892.271 1740.3 900.548 1753.12 910.694C1766.2 920.574 1777.68 932.723 1787.56 947.142C1797.7 961.293 1805.71 977.715 1811.58 996.406C1817.46 1015.1 1820.39 1036.19 1820.39 1059.69V1300Z" fill="#2B2A2A" fill-opacity="0.1"/>
</svg>
