<svg width="40" height="41" viewBox="0 0 40 41" fill="none" xmlns="http://www.w3.org/2000/svg">
<g id="call_24dp_5F6368_FILL0_wght400_GRAD0_opsz24 1">
<path id="Vector" d="M33.25 35.603C29.7778 35.603 26.3472 34.8461 22.9583 33.3322C19.5694 31.8183 16.4861 29.6725 13.7083 26.8947C10.9306 24.1169 8.78472 21.0336 7.27083 17.6447C5.75694 14.2558 5 10.8252 5 7.35303C5 6.85303 5.16667 6.43636 5.5 6.10303C5.83333 5.76969 6.25 5.60303 6.75 5.60303H13.5C13.8889 5.60303 14.2361 5.73497 14.5417 5.99886C14.8472 6.26275 15.0278 6.57525 15.0833 6.93636L16.1667 12.7697C16.2222 13.2141 16.2083 13.5891 16.125 13.8947C16.0417 14.2002 15.8889 14.4641 15.6667 14.6864L11.625 18.7697C12.1806 19.7975 12.8403 20.7905 13.6042 21.7489C14.3681 22.7072 15.2083 23.6308 16.125 24.5197C16.9861 25.3808 17.8889 26.1794 18.8333 26.9155C19.7778 27.6516 20.7778 28.3253 21.8333 28.9364L25.75 25.0197C26 24.7697 26.3264 24.5822 26.7292 24.4572C27.1319 24.3322 27.5278 24.2975 27.9167 24.353L33.6667 25.5197C34.0556 25.6308 34.375 25.8322 34.625 26.1239C34.875 26.4155 35 26.7419 35 27.103V33.853C35 34.353 34.8333 34.7697 34.5 35.103C34.1667 35.4364 33.75 35.603 33.25 35.603ZM10.0417 15.603L12.7917 12.853L12.0833 8.93636H8.375C8.51389 10.0752 8.70833 11.2002 8.95833 12.3114C9.20833 13.4225 9.56944 14.5197 10.0417 15.603ZM24.9583 30.5197C26.0417 30.9919 27.1458 31.3669 28.2708 31.6447C29.3958 31.9225 30.5278 32.103 31.6667 32.1864V28.5197L27.75 27.728L24.9583 30.5197Z" fill="white"/>
</g>
</svg>
